<svg height="28" viewBox="0 0 58 28" width="58" xmlns="http://www.w3.org/2000/svg" xmlns:xlink="http://www.w3.org/1999/xlink"><mask id="a" fill="#fff"><path d="m.06.297h57.195v27.218h-57.195z" fill="none"/></mask><g fill="none" fill-rule="evenodd"><g fill="#6a6a67"><path d="m45.252 24.03c-.757 0-1.371-.613-1.371-1.371v-7.995h-.016v-3.235h.016v-6.527c0-.758.614-1.371 1.371-1.371h10.248c.756 0 1.37-.613 1.37-1.371v-.492c0-.757-.614-1.371-1.37-1.371h-12.262c-1.559 0-2.823 1.263-2.823 2.823v20.958c0 1.76 1.427 3.187 3.187 3.187h12.282c.757 0 1.371-.615 1.371-1.372v-.492c0-.758-.614-1.371-1.371-1.371z" mask="url(#a)"/><path d="m11.879 16.207c-.461-.638-.28-1.553.412-1.929 2.327-1.265 3.661-3.62 3.661-6.626 0-2.855-2.335-7.105-8.767-7.105h-5.853c-.736 0-1.332.597-1.332 1.332v.578c0 .738.6 1.336 1.337 1.333l2.131-.009h3.91c3.766 0 5.108 2.04 5.108 3.95 0 1.977-.785 4.334-4.527 4.334h-4.491v-.008h-2.136c-.736 0-1.332.596-1.332 1.332v12.794c0 .735.596 1.332 1.332 1.332h.804c.736 0 1.332-.597 1.332-1.332v-9.551c0-.736.597-1.332 1.332-1.332h1.488c.428 0 .83.206 1.081.552l8.014 11.11c.25.347.652.553 1.08.553h.992c1.087 0 1.716-1.233 1.079-2.114z" mask="url(#a)"/><path d="m33.285 19.78c-.201 1.005-.58 1.831-1.126 2.458-.404.579-.969 1.072-1.664 1.444-.724.433-1.601.656-2.596.656-.984 0-1.844-.223-2.555-.664-.7-.361-1.29-.852-1.734-1.451-.534-.612-.901-1.44-1.078-2.446-.197-.982-.293-2.807-.293-5.575s.096-4.604.294-5.618c.176-.976.543-1.79 1.09-2.418.43-.582 1.017-1.085 1.732-1.481.709-.384 1.562-.593 2.538-.62.999.027 1.87.235 2.601.619.7.4 1.263.905 1.681 1.503.53.606.908 1.418 1.109 2.396.184 1.003.277 2.892.277 5.619 0 2.766-.091 4.59-.276 5.578zm-.284-17.869c-1.348-.976-3.062-1.483-5.095-1.508-2.003.025-3.699.531-5.034 1.501-1.371.97-2.377 2.082-2.993 3.311-.388.657-.675 1.515-.862 2.57-.177 1.067-.266 3.227-.266 6.417 0 3.134.089 5.277.267 6.368.093.576.211 1.058.349 1.432.151.367.324.763.515 1.176.612 1.224 1.618 2.328 2.985 3.273 1.34.98 3.037 1.5 5.048 1.549 2.023-.049 3.738-.569 5.086-1.545 1.345-.947 2.326-2.05 2.917-3.28.441-.667.737-1.532.9-2.602.153-1.093.231-3.237.231-6.371 0-3.185-.078-5.341-.232-6.411-.161-1.04-.457-1.894-.88-2.531-.61-1.263-1.592-2.379-2.936-3.349z"/></g><path d="m54.349 13.711-26.795 4.542c-.904.153-1.769-.461-1.922-1.364l-.043-.255c-.153-.904.461-1.769 1.365-1.922l26.795-4.542c.903-.153 1.768.461 1.922 1.365l.043.254c.153.904-.462 1.769-1.365 1.922" fill="#e2642c"/></g></svg>