<?xml version="1.0" encoding="UTF-8"?>
<svg width="143px" height="81px" viewBox="0 0 143 81" version="1.1" xmlns="http://www.w3.org/2000/svg" xmlns:xlink="http://www.w3.org/1999/xlink">
    <!-- Generator: Sketch 50.2 (55047) - http://www.bohemiancoding.com/sketch -->
    <title>Logo-roe-novo-1</title>
    <desc>Created with Sketch.</desc>
    <defs>
        <polygon id="path-1" points="1.89278803e-05 0.917 142.377 0.917 142.377 81 1.89278803e-05 81"></polygon>
    </defs>
    <g id="Logo-roe-novo-1" stroke="none" stroke-width="1" fill="none" fill-rule="evenodd">
        <g id="Group-4">
            <mask id="mask-2" fill="white">
                <use xlink:href="#path-1"></use>
            </mask>
            <g id="Clip-2"></g>
            <path d="M81.799,50.257 C81.042,50.257 80.428,49.643 80.428,48.886 L80.428,40.89 L80.412,40.89 L80.412,37.655 L80.428,37.655 L80.428,31.129 C80.428,30.371 81.042,29.758 81.799,29.758 L92.047,29.758 C92.804,29.758 93.418,29.144 93.418,28.387 L93.418,27.894 C93.418,27.138 92.804,26.523 92.047,26.523 L79.786,26.523 C78.227,26.523 76.963,27.787 76.963,29.346 L76.963,50.304 C76.963,52.064 78.389,53.491 80.149,53.491 L92.431,53.491 C93.189,53.491 93.802,52.877 93.802,52.12 L93.802,51.628 C93.802,50.87 93.189,50.257 92.431,50.257 L81.799,50.257" id="Fill-1" fill="#6A6A67" mask="url(#mask-2)"></path>
            <path d="M72.808,7.162 C83.057,7.162 96.381,9.968 107.613,15.647 C91.935,0.33 71.2,4.573 52.935,10.357 C53.136,10.343 53.336,10.33 53.537,10.317 C57.176,9.428 61.015,8.595 65.049,7.818 C67.319,7.381 69.945,7.162 72.808,7.162 Z M58.931,10.151 C74.776,10.151 92.582,14.293 108.553,21.776 C110.241,22.566 112.204,23.487 114.293,24.544 C112.92,21.952 111.215,19.509 109.209,17.299 C94.688,9.333 75.931,6.456 65.185,8.525 C62.474,9.046 59.854,9.593 57.323,10.165 C57.857,10.157 58.393,10.151 58.931,10.151 Z M16.923,24.672 C16.862,24.762 16.801,24.851 16.742,24.941 C23.655,20.459 32.885,16.29 44.52,12.374 C45.111,12.176 45.706,11.975 46.304,11.775 C35.385,13.512 25.277,17.617 16.923,24.672 Z M64.481,1.635 C61.785,1.635 59.212,1.707 56.808,1.842 C41.062,2.726 24.672,12.7 14.785,25.612 C15.302,25.138 15.829,24.674 16.364,24.221 C22.336,15.509 33.499,8.475 46.675,5.62 C54.309,3.966 62.138,2.514 70.077,1.736 C68.167,1.668 66.296,1.635 64.481,1.635 Z M12.416,28.955 C12.23,29.239 12.048,29.523 11.868,29.809 C12.674,28.98 13.539,28.169 14.472,27.371 C14.475,27.366 14.477,27.36 14.481,27.354 C13.789,27.856 13.128,28.362 12.494,28.871 C12.468,28.899 12.442,28.927 12.416,28.955 Z M115.389,25.105 C118.362,26.647 121.529,28.46 124.478,30.561 C122.195,26.987 118.862,23.632 114.568,20.62 C113.44,19.83 112.271,19.076 111.066,18.36 C112.762,20.456 114.211,22.726 115.389,25.105 Z M125.972,31.666 C129.01,34.002 131.723,36.667 133.618,39.685 C134.671,33.334 133.554,27.673 130.268,22.775 C121.261,9.344 96.927,3.505 75.651,2.028 C65.855,2.57 56.197,4.293 46.827,6.323 C34.957,8.895 24.75,14.889 18.601,22.428 C27.097,15.98 37.589,11.987 49.687,10.65 C69.172,4.25 92.038,-1.529 108.973,15.995 C109.207,16.236 109.437,16.482 109.663,16.729 C111.513,17.748 113.292,18.848 114.981,20.032 C119.943,23.511 123.65,27.451 125.972,31.666 Z M8.206,32.832 C5.887,35.335 4.192,37.929 3.108,40.622 C2.963,40.983 2.83,41.346 2.708,41.711 C3.725,39.569 5.027,37.342 6.615,35.032 C7.131,34.282 7.661,33.55 8.206,32.832 Z M7.06,37.892 C4.293,43.714 3.674,49.112 5.202,54.001 C4.743,51.357 4.702,48.564 5.094,45.641 C5.441,43.048 6.111,40.453 7.06,37.892 Z M133.979,41.61 C133.323,44.539 132.233,47.6 130.712,50.789 C129.016,54.341 126.957,57.445 124.597,60.153 C127.688,58.961 130.728,57.812 133.731,56.737 C133.844,56.509 133.951,56.275 134.055,56.041 C136.457,50.535 136.044,45.754 133.979,41.61 Z M126.674,33.039 C127.6,34.995 128.23,37.005 128.556,39.051 C130.528,51.467 122.724,59.531 112.511,64.888 C113.72,64.415 114.927,63.938 116.134,63.464 C118.485,62.538 120.803,61.625 123.092,60.735 C125.818,57.834 128.173,54.438 130.063,50.479 C131.705,47.038 132.834,43.749 133.449,40.624 C131.823,37.796 129.43,35.276 126.674,33.039 Z M1.849,45.773 C1.485,49.66 2.388,53.7 4.554,57.843 C6.111,60.82 8.195,63.409 10.706,65.652 C8.827,63.424 7.388,61.003 6.405,58.405 C6.322,58.267 6.241,58.128 6.161,57.988 C2.637,51.774 2.842,44.664 6.77,36.848 C7.495,35.406 8.378,34.004 9.418,32.643 C9.528,32.433 9.639,32.228 9.753,32.021 C8.873,33.113 8.025,34.253 7.208,35.44 C4.686,39.108 2.9,42.554 1.849,45.773 Z M1.088,48.679 C0.213,53.188 0.923,57.192 3.226,60.66 C5.555,64.165 9.33,66.936 14.021,69.101 C9.717,66.222 6.241,62.626 3.916,58.176 C2.228,54.948 1.285,51.773 1.088,48.679 Z M115.892,26.164 C118.251,31.346 119.338,36.99 118.914,42.459 C118.318,50.165 114.814,56.648 108.784,61.21 C102.542,65.934 95.707,69.678 88.615,72.323 C105.346,68.461 131.185,60.182 127.845,39.164 C127.455,36.711 126.609,34.309 125.328,31.989 C122.359,29.761 119.065,27.83 115.892,26.164 Z M18.377,70.854 C22.069,72.151 26.146,73.157 30.419,73.921 C21.829,71.469 13.744,67.38 8.762,61.64 C10.342,64.344 12.493,66.816 15.194,69.026 C16.212,69.674 17.274,70.281 18.377,70.854 Z M123.517,61.343 C117.609,67.596 110.003,71.588 101.601,74.067 C110.782,72.073 127.346,67.842 133.222,57.685 C130.037,58.836 126.807,60.065 123.517,61.343 Z M15.051,27.815 C14.233,29.414 13.592,31.055 13.147,32.726 C10.577,42.365 14.431,52.164 24.289,61.062 C34.139,69.951 46.335,74.902 59.209,75.923 C68.271,75.75 76.304,74.916 81.426,73.874 C90.734,71.439 99.905,67.027 108.35,60.636 C114.211,56.202 117.616,49.897 118.197,42.404 C118.635,36.758 117.424,30.917 114.841,25.619 C112.483,24.412 110.223,23.353 108.248,22.427 C91.281,14.477 71.908,9.872 54.014,10.941 C36.212,15.26 23.183,20.906 15.051,27.815 Z M39.598,75.18 C44.022,75.624 48.509,75.858 52.868,75.929 C42.039,73.981 32.159,69.133 23.807,61.596 C11.082,50.111 10.609,39.456 12.452,32.54 C12.766,31.357 13.178,30.187 13.679,29.036 C12.284,30.338 11.056,31.683 9.996,33.071 C7.838,37.187 6.38,41.463 5.807,45.737 C5.208,50.211 5.653,54.37 7.092,58.152 C12.806,67.557 26.651,73.216 39.598,75.18 Z M57.73,76.644 C58.105,76.665 58.482,76.684 58.859,76.703 C58.611,76.682 58.363,76.662 58.116,76.639 C57.986,76.641 57.861,76.642 57.73,76.644 Z M121.864,61.987 C120.061,62.692 118.24,63.408 116.397,64.134 C104.587,68.785 92.608,73.499 80.605,76.758 C96.178,75.8 111.445,72.135 121.864,61.987 Z M63.46,76.902 C67.915,77.056 72.492,77.097 77.069,76.93 C83.113,75.435 89.155,73.533 95.178,71.417 C90.092,72.813 85.352,73.795 81.755,74.541 C81.616,74.57 81.474,74.599 81.331,74.626 C76.258,75.949 71.111,76.713 66.005,76.872 C65.154,76.898 64.305,76.908 63.46,76.902 Z M77.167,77.65 C76.797,77.741 76.429,77.832 76.059,77.92 C77.561,77.79 79.041,77.645 80.501,77.488 C79.391,77.555 78.279,77.609 77.167,77.65 Z M23.196,73.028 C36.745,78.337 54.636,79.284 70.982,78.293 C71.859,78.118 72.733,77.934 73.61,77.74 C63.761,77.884 54.081,77.178 45.684,76.563 L44.992,76.513 C42.979,76.366 40.911,76.123 38.823,75.786 C33.399,75.211 28.078,74.319 23.196,73.028 Z M20.64,72.714 C23.405,74.272 26.533,75.639 30.014,76.802 C41.672,80.693 53.529,81.011 65.424,79.257 C49.649,79.746 33.076,78.248 20.64,72.714 Z M52.146,81 C44.648,81 37.185,79.955 29.787,77.483 C24.488,75.714 19.989,73.474 16.332,70.821 C10.304,68.471 5.438,65.288 2.627,61.057 C-0.279,56.684 -0.772,51.519 1.138,45.624 C1.313,43.837 1.747,42.078 2.441,40.353 C4.135,36.138 7.284,32.166 11.929,28.411 C21.563,13.802 39.545,2.09 56.766,1.123 C62.337,0.81 68.814,0.839 75.604,1.308 C88.458,0.596 101.555,1.903 114.575,7.188 L114.303,7.854 C103.513,3.474 92.653,1.85 81.921,1.85 C81.862,1.85 81.804,1.85 81.746,1.85 C101.585,3.984 122.574,10.01 130.866,22.373 C134.405,27.649 135.51,33.764 134.182,40.636 C136.669,45.103 137.341,50.31 134.714,56.329 C134.704,56.352 134.695,56.374 134.683,56.398 C137.199,55.507 139.69,54.669 142.162,53.894 L142.377,54.581 C139.69,55.421 136.984,56.339 134.243,57.318 C128.088,69.231 108.107,73.437 99.444,75.263 C91.744,76.883 81.785,78.346 71.166,78.992 C64.816,80.257 58.47,81 52.146,81 Z" id="Fill-3" fill="#E2642C" mask="url(#mask-2)"></path>
        </g>
        <path d="M48.427,42.433 C47.965,41.796 48.147,40.881 48.839,40.505 C51.166,39.239 52.5,36.885 52.5,33.879 C52.5,31.023 50.165,26.773 43.733,26.773 L37.88,26.773 C37.144,26.773 36.548,27.37 36.548,28.105 L36.548,28.683 C36.548,29.422 37.147,30.019 37.885,30.016 L40.016,30.008 L43.926,30.008 C47.692,30.008 49.034,32.048 49.034,33.958 C49.034,35.934 48.249,38.292 44.506,38.292 L40.016,38.292 L40.016,38.283 L37.88,38.283 C37.144,38.283 36.548,38.88 36.548,39.615 L36.548,52.409 C36.548,53.144 37.144,53.741 37.88,53.741 L38.683,53.741 C39.419,53.741 40.016,53.144 40.016,52.409 L40.016,42.858 C40.016,42.123 40.612,41.526 41.348,41.526 L42.836,41.526 C43.264,41.526 43.666,41.732 43.916,42.079 L51.931,53.188 C52.181,53.535 52.583,53.741 53.011,53.741 L54.002,53.741 C55.09,53.741 55.719,52.509 55.081,51.628 L48.427,42.433" id="Fill-5" fill="#6A6A67"></path>
        <path d="M69.833,46.007 C69.631,47.012 69.252,47.838 68.706,48.465 C68.303,49.044 67.738,49.537 67.043,49.908 C66.319,50.342 65.442,50.564 64.447,50.564 C63.463,50.564 62.603,50.342 61.892,49.9 C61.191,49.54 60.602,49.049 60.158,48.449 C59.623,47.838 59.256,47.01 59.079,46.004 C58.883,45.021 58.786,43.196 58.786,40.429 C58.786,37.661 58.883,35.824 59.08,34.81 C59.257,33.835 59.623,33.02 60.17,32.392 C60.6,31.81 61.187,31.307 61.903,30.912 C62.611,30.527 63.464,30.318 64.44,30.292 C65.44,30.318 66.31,30.526 67.041,30.91 C67.742,31.31 68.304,31.815 68.723,32.414 C69.252,33.019 69.631,33.832 69.832,34.809 C70.015,35.812 70.108,37.701 70.108,40.429 C70.108,43.194 70.018,45.018 69.833,46.007 Z M69.549,28.138 C68.201,27.162 66.487,26.654 64.454,26.63 C62.451,26.654 60.755,27.16 59.419,28.131 C58.048,29.1 57.042,30.213 56.427,31.441 C56.038,32.098 55.751,32.957 55.565,34.012 C55.388,35.078 55.298,37.238 55.298,40.429 C55.298,43.562 55.388,45.705 55.565,46.797 C55.659,47.373 55.776,47.854 55.914,48.228 C56.066,48.596 56.239,48.991 56.43,49.404 C57.042,50.629 58.047,51.732 59.414,52.678 C60.755,53.657 62.451,54.178 64.462,54.226 C66.486,54.178 68.201,53.657 69.548,52.681 C70.894,51.734 71.875,50.632 72.466,49.401 C72.906,48.734 73.202,47.87 73.365,46.8 C73.518,45.707 73.597,43.562 73.597,40.429 C73.597,37.244 73.518,35.088 73.365,34.017 C73.203,32.977 72.907,32.124 72.484,31.486 C71.874,30.223 70.892,29.107 69.549,28.138 Z" id="Fill-6" fill="#6A6A67"></path>
        <path d="M90.896,39.937 L64.101,44.479 C63.198,44.633 62.333,44.018 62.18,43.115 L62.137,42.86 C61.983,41.957 62.598,41.092 63.501,40.938 L90.296,36.396 C91.2,36.243 92.065,36.857 92.218,37.762 L92.261,38.015 C92.414,38.92 91.8,39.784 90.896,39.937" id="Fill-7" fill="#E2642C"></path>
    </g>
</svg>